<svg xmlns="http://www.w3.org/2000/svg" height="24px" viewBox="0 -960 960 960" width="24px" fill="#404040"><path d="M202.87-71.87q-37.78 0-64.39-26.61t-26.61-64.39v-554.26q0-37.78 26.61-64.39t64.39-26.61H240v-37.37q0-17.96 12.46-30.29 12.45-12.34 30.41-12.34t30.29 12.34q12.34 12.33 12.34 30.29v37.37h309v-37.37q0-17.96 12.46-30.29 12.45-12.34 30.41-12.34t30.29 12.34Q720-863.46 720-845.5v37.37h37.13q37.78 0 64.39 26.61t26.61 64.39v554.26q0 37.78-26.61 64.39t-64.39 26.61H202.87Zm0-91h554.26V-560H202.87v397.13ZM480-398.09q-17.72 0-29.82-12.09-12.09-12.1-12.09-29.82t12.09-29.82q12.1-12.09 29.82-12.09t29.82 12.09q12.09 12.1 12.09 29.82t-12.09 29.82q-12.1 12.09-29.82 12.09Zm-189.82-12.09q-12.09-12.1-12.09-29.82t12.09-29.82q12.1-12.09 29.82-12.09t29.82 12.09q12.09 12.1 12.09 29.82t-12.09 29.82q-12.1 12.09-29.82 12.09t-29.82-12.09ZM640-398.09q-17.48 0-29.7-12.09-12.21-12.1-12.21-29.82t12.21-29.82q12.22-12.09 29.7-12.09 17.72 0 29.82 12.09 12.09 12.1 12.09 29.82t-12.09 29.82q-12.1 12.09-29.82 12.09Zm-160 160q-17.72 0-29.82-12.21-12.09-12.22-12.09-29.7 0-17.72 12.09-29.82 12.1-12.09 29.82-12.09t29.82 12.09q12.09 12.1 12.09 29.82 0 17.48-12.09 29.7-12.1 12.21-29.82 12.21ZM290.18-250.3q-12.09-12.22-12.09-29.7 0-17.72 12.09-29.82 12.1-12.09 29.82-12.09t29.82 12.09q12.09 12.1 12.09 29.82 0 17.48-12.09 29.7-12.1 12.21-29.82 12.21t-29.82-12.21ZM640-238.09q-17.48 0-29.7-12.21-12.21-12.22-12.21-29.7 0-17.72 12.21-29.82 12.22-12.09 29.7-12.09 17.72 0 29.82 12.09 12.09 12.1 12.09 29.82 0 17.48-12.09 29.7-12.1 12.21-29.82 12.21Z"/></svg>